<?xml version="1.0" encoding="UTF-8"?>
<svg width="100px" height="100px" viewBox="0 0 100 100" version="1.1" xmlns="http://www.w3.org/2000/svg" xmlns:xlink="http://www.w3.org/1999/xlink">
    <!-- Generator: Sketch 46.2 (44496) - http://www.bohemiancoding.com/sketch -->
    <title>star_on</title>
    <desc>Created with Sketch.</desc>
    <defs></defs>
    <g id="Page-1" stroke="none" stroke-width="1" fill="none" fill-rule="evenodd">
        <g id="star_on">
            <path d="M50.0006145,8 C48.8353433,8 47.8785944,8.55418794 47.047572,9.25294665 C46.2196162,9.95170536 45.4591234,10.8612964 44.6986307,11.9124464 C43.1868446,14.0117344 41.6934576,16.7194244 40.2338022,19.4963879 C38.7772132,22.2763633 37.3512893,25.1226003 36.0725575,27.4026017 C34.7907592,29.6856151 33.4660298,31.4325119 33.0121874,31.7517723 C32.5522119,32.0680209 30.3964602,32.7396726 27.7316691,33.2035038 C25.0699444,33.6643231 21.8133181,34.082976 18.6057558,34.5528309 C15.3981936,35.0256978 12.2519614,35.546755 9.70369737,36.2786445 C8.42803208,36.6460952 7.30262545,37.0557124 6.35507599,37.5978527 C5.40446003,38.1399931 4.54583917,38.8417637 4.1778588,39.9350801 C3.80374542,41.0253847 4.07053119,42.094606 4.50904113,43.0734705 C4.94755107,44.055347 5.61298224,45.0251759 6.41947256,46.0401832 C8.03245318,48.0732096 10.2526014,50.2779138 12.5616783,52.4675585 C14.8676886,54.6541914 17.253428,56.8227529 19.1239949,58.6961491 C20.9884288,60.5695453 22.3192911,62.3405372 22.4848823,62.8224398 C22.6474069,63.313378 22.6535399,65.4819395 22.2916926,68.0480706 C21.9298452,70.6172136 21.3288106,73.7104257 20.8044386,76.7825545 C20.283133,79.8546833 19.8323571,82.8906694 19.771027,85.4507767 C19.740362,86.7308304 19.8016921,87.8904084 20.0470123,88.9325227 C20.2923326,89.9776489 20.733909,90.9896443 21.6875915,91.6522603 C22.6382074,92.3148763 23.7421485,92.3961974 24.8460896,92.2998169 C25.9377647,92.2034363 27.0969029,91.908271 28.3511027,91.4866063 C30.8656352,90.637253 33.7297491,89.2879259 36.612262,87.8602895 C39.4947749,86.4356651 42.3864873,84.9387553 44.8212908,83.812308 C47.2591608,82.6858608 49.4118459,82.0051735 49.991415,82.0051735 C50.5740506,82.0051735 52.7206028,82.6858608 55.1615392,83.812308 C57.5963427,84.9387553 60.4880551,86.4326532 63.370568,87.8602895 C66.2530809,89.284914 69.1202613,90.637253 71.6317273,91.4835944 C72.8889936,91.9052591 74.0450653,92.2064482 75.1398069,92.296805 C76.243748,92.3961974 77.3476891,92.3148763 78.2983051,91.6522603 C79.248921,90.9896443 79.693564,89.9776489 79.9419507,88.9355346 C80.187271,87.8964322 80.248601,86.7368542 80.217936,85.4568005 C80.1566059,82.8966932 79.7027635,79.8607071 79.1814579,76.7915902 C78.6601524,73.7194613 78.0560513,70.6232374 77.6942039,68.0571063 C77.3323566,65.4879633 77.3384896,63.3194018 77.5040808,62.8314754 C77.6727384,62.3435491 79.0066673,60.5725572 80.8711012,58.7051848 C82.741668,56.8287767 85.1243409,54.6602152 87.4334178,52.4705704 C89.7332951,50.2839376 91.9595763,48.0792334 93.5756235,46.0492188 C94.3882468,45.0372235 95.047545,44.0673946 95.4891214,43.0855181 C95.9276313,42.1066535 96.1944171,41.0374322 95.8264367,39.9471277 C95.4584564,38.8538113 94.5937025,38.1520407 93.6430865,37.6099003 C92.6924706,37.0677599 91.5701304,36.6581427 90.3005982,36.2937039 C87.7492676,35.5648263 84.6030354,35.0437692 81.3954732,34.5709023 C78.1909774,34.1010473 74.9312847,33.6823945 72.26956,33.2155513 C69.6017023,32.754732 67.4490171,32.0830803 66.9951747,31.7698437 C66.5351992,31.4475713 65.2166029,29.7006746 63.9286716,27.4176612 C62.6499398,25.1376597 61.2301488,22.2914227 59.7704934,19.5114474 C58.3108379,16.7344839 56.8174509,14.0298058 55.3025984,11.9214821 C54.5359726,10.873344 53.7816128,9.96375292 52.9505905,9.26499421 C52.1257012,8.55418794 51.1658857,8 50.0006145,8 Z" id="Path-Copy" fill="#FFD73F"></path>
            <path d="M50.0006145,7 C51.3233194,7 52.4768493,7.53672454 53.5941605,8.49960694 C54.4265652,9.19952804 55.2004762,10.0879701 56.1147059,11.3379743 C57.4762668,13.2329516 58.8177163,15.5495244 60.6558692,19.0465714 C60.8026836,19.3261857 60.9543542,19.6164754 61.1149004,19.9250062 C61.4408098,20.5513248 62.714257,23.0178012 63.0228244,23.610583 C63.7383929,24.9852454 64.2906968,26.0188611 64.7996374,26.9263176 C65.9001282,28.8770701 67.2106022,30.6997619 67.5632048,30.9468359 C67.9280378,31.1986393 70.172607,31.8385362 72.4423142,32.2305864 C73.5858243,32.431148 74.8742394,32.6298633 76.6305747,32.8820943 C77.2386388,32.9694197 79.9827557,33.3562233 80.7247444,33.4630216 C81.0086391,33.503884 81.2789177,33.5431204 81.5413193,33.581595 C85.6250344,34.1836265 88.2952494,34.6807975 90.5765197,35.3325238 C92.037857,35.7520232 93.173989,36.1911782 94.1384891,36.7412368 C95.4703188,37.500785 96.3550844,38.3829074 96.7739283,39.627347 C97.1956767,40.8769631 97.0171153,42.1206576 96.401136,43.4956758 C95.947411,44.5045655 95.2839973,45.5188539 94.3579874,46.6720405 C92.905357,48.4967773 91.0167255,50.4435378 88.1215098,53.1961938 C87.8460002,53.4574533 87.5581208,53.729163 87.2457068,54.0229455 C86.8474389,54.3974619 84.8085736,56.3051713 84.2550354,56.8270131 C83.1502915,57.8684977 82.3109955,58.6772175 81.5787645,59.4117345 C80.0139113,60.9790542 78.5811711,62.776409 78.451033,63.1528496 C78.3251645,63.5237305 78.3808674,65.7623175 78.684408,67.9174787 C78.8982419,69.4339351 78.9729745,69.8674061 79.7568957,74.2733149 C79.8929271,75.0378586 79.9985194,75.6389531 80.0985843,76.2214924 C80.1331104,76.4228696 80.1331104,76.4228696 80.1673374,76.6241334 C80.8304901,80.5283568 81.1626288,83.136132 81.2176492,85.4328513 C81.2530374,86.9100653 81.1664114,88.1012308 80.9147013,89.1673886 C80.5692455,90.6167593 79.9523164,91.7183102 78.8701358,92.4726319 C77.7960585,93.2213052 76.5718399,93.4297817 75.0575495,93.2934161 C73.9496553,93.2019738 72.7702819,92.9201876 71.3123818,92.4312327 C69.0664521,91.6743747 66.594704,90.5692199 62.926745,88.756404 C62.396078,88.4932133 62.0204781,88.305997 61.6030869,88.0972233 C61.6804539,88.1359213 58.8003858,86.6911301 58.0215048,86.3043067 C56.7096147,85.65277 55.6718039,85.1502136 54.7425236,84.7202871 C52.6366671,83.7484731 50.4506253,83.0051735 49.991415,83.0051735 C49.5329327,83.0051735 47.3392382,83.7504505 45.241176,84.7198853 C44.3237613,85.1443217 43.3015508,85.6394522 42.0044742,86.2838017 C41.2529384,86.6571425 38.5520682,88.0120702 38.4699959,88.0531028 C38.0184091,88.2788774 37.6137384,88.4803696 37.2266622,88.6720222 C33.4241394,90.5552156 30.9269922,91.6720344 28.6697768,92.4344706 C27.2469233,92.9128371 26.0490189,93.1975038 24.9330646,93.2960273 C23.409104,93.429078 22.1884658,93.2203487 21.1170002,92.4734945 C20.0301902,91.7183819 19.4149095,90.615648 19.0736195,89.1616655 C18.8225195,88.0949992 18.7359354,86.9036356 18.7713138,85.4268276 C18.8264455,83.1254628 19.1594937,80.4990656 19.8186948,76.614301 C19.8493192,76.4352044 19.8493192,76.4352044 19.8801435,76.2561461 C19.9772158,75.6931389 20.0795068,75.1117812 20.2107728,74.37438 C20.9970521,69.9573686 21.0838214,69.4538951 21.3014885,67.908443 C21.6048412,65.757141 21.661507,63.5171922 21.5391578,63.1474092 C21.4101602,62.7720012 19.9780989,60.9719755 18.4163539,59.4027213 C17.6917427,58.6770141 16.8609101,57.877366 15.7670792,56.8470816 C15.2210381,56.332763 13.2051816,54.4480425 12.8069385,54.0738455 C12.4725763,53.7596724 12.166276,53.4707198 11.8735862,53.1931819 C9.01431672,50.4818021 7.09509611,48.5006775 5.63653271,46.6622806 C4.69498535,45.4772975 4.04114492,44.478071 3.59643042,43.4823002 C2.97968483,42.1055688 2.80284352,40.8612222 3.23010054,39.6160907 C3.64948685,38.3700407 4.5325614,37.4860469 5.85846511,36.7298794 C6.81834848,36.1806822 7.95269244,35.7423562 9.42764651,35.3175015 C11.7045607,34.6635466 14.3700957,34.1664543 18.4608191,33.56339 C18.698078,33.5286355 18.942333,33.4931739 19.1969022,33.4565027 C19.9789887,33.3438414 22.9781421,32.9216701 23.6782401,32.8208502 C25.2746569,32.590953 26.4866842,32.4041696 27.5601882,32.2183163 C29.8315824,31.8229595 32.075512,31.1822185 32.4368268,30.9338725 C32.7960911,30.681144 34.1123344,28.851332 35.2003665,26.9134361 C35.7126053,26.0001053 36.2695913,24.9592668 36.9810464,23.5948894 C37.3374851,22.9113368 38.6352423,20.4001123 38.8899033,19.9102743 C39.0509151,19.6005695 39.202058,19.3108627 39.3486339,19.0311169 C41.1945403,15.5193193 42.5298613,13.2128179 43.8884379,11.3262829 C44.7707665,10.1067319 45.5631941,9.19716256 46.4040021,8.48755937 C47.5471873,7.52632089 48.6858988,7 50.0006145,7 Z M50.0006145,9 C49.2270416,9 48.5057256,9.33339762 47.6925352,10.0171603 C46.9967391,10.6043819 46.3039741,11.399556 45.5101103,12.4968271 C44.2222345,14.2851902 42.9239814,16.527664 41.1195798,19.9604977 C40.974659,20.2370866 40.8244916,20.5249236 40.6644181,20.8328235 C40.4114991,21.3193109 39.1129738,23.8320218 38.754426,24.5196189 C38.0343834,25.9004648 37.4687454,26.9574714 36.9445239,27.8921674 C35.711462,30.0883762 34.2738891,32.086858 33.578735,32.5758014 C32.889382,33.0497546 30.4582257,33.743957 27.9022594,34.1888458 C26.8057049,34.3786902 25.5768708,34.5680637 23.9633158,34.8004289 C23.2590065,34.9018553 20.2599098,35.3240186 19.482063,35.4360691 C19.2290143,35.4725213 18.9863224,35.507756 18.751602,35.5421382 C14.7450503,36.1327941 12.1472743,36.6172502 9.98048966,37.2395743 C8.64662693,37.6237885 7.6509285,38.00854 6.85047854,38.4665163 C5.9101395,39.0027957 5.3621219,39.5513837 5.12372629,40.2596332 C4.88584823,40.9528977 4.99318926,41.7082046 5.42211938,42.6656862 C5.78768567,43.484233 6.35629563,44.3532067 7.20286135,45.4186512 C8.58826254,47.1648329 10.4542485,49.0910057 13.2497531,51.7419188 C13.5400649,52.0172017 13.8441934,52.3041056 14.1764639,52.6163133 C14.5719243,52.9878956 16.5889851,54.8737421 17.1383706,55.3912108 C18.245806,56.4343093 19.0899479,57.2467671 19.8327951,57.9907398 C21.6094201,59.7759051 23.1690431,61.7362691 23.4342141,62.5081643 C23.6899697,63.2807251 23.627911,65.7338507 23.2819193,68.1875377 C23.0592495,69.7685093 22.9722399,70.2733776 22.1798184,74.724893 C22.0491329,75.4590334 21.9474219,76.0370947 21.8510625,76.595967 C21.8205114,76.7734382 21.8205114,76.7734382 21.7903451,76.9498517 C21.1464319,80.7445251 20.8229454,83.2955192 20.7707402,85.4747259 C20.7391006,86.7954612 20.8140556,87.8268125 21.0205522,88.7040058 C21.2591322,89.7204168 21.6386234,90.4005579 22.2594222,90.8318886 C22.8836807,91.267021 23.6592019,91.3996352 24.7581449,91.3036915 C25.6945327,91.2210208 26.7469033,90.9709384 28.0310878,90.5391938 C30.1795131,89.8135034 32.6117301,88.7257238 36.1691914,86.9638028 C36.723786,86.6892826 37.1262037,86.4889122 37.5756286,86.2642185 C37.6546007,86.2247358 40.3589787,84.8680484 41.1146776,84.4926395 C42.4269008,83.8407656 43.4643462,83.3382557 44.4018408,82.9045296 C46.7649665,81.8126189 49.1416514,81.0051735 49.991415,81.0051735 C50.8421287,81.0051735 53.2094835,81.8101233 55.5814244,82.9047308 C56.5311155,83.3440997 57.5841317,83.8540193 58.9111135,84.5130512 C59.6942381,84.901982 62.5784197,86.3488369 62.4977816,86.3085027 C62.913338,86.5163586 63.287026,86.702622 63.6442968,86.8798613 C67.4052518,88.7388859 69.8131758,89.8155041 71.9497028,90.5354955 C73.2665904,90.9771561 74.3001409,91.224101 75.2294783,91.3008336 C76.3254203,91.3995058 77.1018331,91.2672877 77.7264744,90.8318886 C78.3451876,90.4006216 78.7273975,89.7181709 78.9687062,88.7057627 C79.1748936,87.8324153 79.2498635,86.8015291 79.2182228,85.4807497 C79.1661426,83.3067614 78.8435274,80.7737596 78.1955514,76.9588873 C78.1616526,76.7595527 78.1616526,76.7595527 78.1274532,76.5600808 C78.0281705,75.9820951 77.9232141,75.3846208 77.7878206,74.6236626 C76.9976871,70.1828382 76.9228473,69.7487456 76.7039772,68.1965734 C76.3568342,65.7318325 76.2958263,63.280047 76.5589511,62.5047799 C76.8238688,61.7383734 78.3853081,59.7795672 80.1628929,57.9991812 C80.9118408,57.2478945 81.7645981,56.4262039 82.883101,55.3717482 C83.4400276,54.846712 85.4801448,52.9378312 85.8756061,52.5659541 C86.1860946,52.2739821 86.4719761,52.0041582 86.7443786,51.7458463 C89.5758454,49.0537991 91.4135545,47.1595282 92.7958937,45.4231027 C93.6271021,44.3879624 94.2026215,43.508055 94.5765107,42.6766885 C95.0048474,41.720533 95.1136892,40.9624415 94.8786785,40.2661172 C94.6430799,39.5661238 94.0929868,39.0176741 93.147684,38.4785638 C92.3426763,38.0194645 91.3457625,37.6341222 90.0259028,37.2552352 C87.8540207,36.6347605 85.2510405,36.150108 81.2504006,35.5603233 C80.9905849,35.5222282 80.722032,35.4832423 80.4398105,35.4426207 C79.7015747,35.3363626 76.9578764,34.949618 76.3462674,34.8617835 C74.5711965,34.6068619 73.2648475,34.4053806 72.0993504,34.2009592 C69.546563,33.760016 67.1130462,33.0662526 66.4213664,32.5888334 C65.7336187,32.1069771 64.304942,30.1198813 63.0564806,27.9068268 C62.5342115,26.9756117 61.9731321,25.9255729 61.248784,24.5340442 C60.9381815,23.9373528 59.6646456,21.4707048 59.3407263,20.8482105 C59.1812679,20.5417702 59.0307271,20.2536428 58.8853251,19.9767184 C57.0878458,16.5570523 55.7835137,14.3045781 54.4954563,12.5118393 C53.6726107,11.386837 52.9947299,10.6086366 52.2978117,10.0225428 C51.5031257,9.33776268 50.7772052,9 50.0006145,9 Z" id="Path-Copy" fill="#404041" fill-rule="nonzero"></path>
        </g>
    </g>
</svg>