<?xml version="1.0" encoding="UTF-8"?>
<svg width="100px" height="100px" viewBox="0 0 100 100" version="1.1" xmlns="http://www.w3.org/2000/svg" xmlns:xlink="http://www.w3.org/1999/xlink">
    <!-- Generator: Sketch 46.2 (44496) - http://www.bohemiancoding.com/sketch -->
    <title>sad</title>
    <desc>Created with Sketch.</desc>
    <defs></defs>
    <g id="Page-1" stroke="none" stroke-width="1" fill="none" fill-rule="evenodd">
        <g id="sad">
            <circle id="Oval" fill="#FFFFFF" cx="51" cy="50" r="44"></circle>
            <path d="M92.9063746,49.9717058 C92.9063746,26.5667601 74.0934595,7.59673373 50.8906375,7.59673373 C27.6878154,7.59673373 8.87490035,26.56676 8.87490035,49.9717058 C8.87490035,73.3766516 27.6878154,92.3466779 50.8906375,92.3466779 C74.0934596,92.3466779 92.9063746,73.3766516 92.9063746,49.9717058 Z M94.9063746,49.9717058 C94.9063746,74.4775149 75.2017695,94.3466779 50.8906375,94.3466779 C26.5795054,94.3466779 6.87490035,74.4775149 6.87490035,49.9717058 C6.87490035,25.4658968 26.5795054,5.59673373 50.8906375,5.59673373 C75.2017695,5.59673373 94.9063746,25.4658968 94.9063746,49.9717058 Z" id="Stroke-61" fill="#4A4A4A" fill-rule="nonzero"></path>
            <g id="Group-4" stroke-linecap="round" stroke-linejoin="round" transform="translate(48.500000, 68.500000) scale(1, -1) rotate(10.000000) translate(-48.500000, -68.500000) translate(39.000000, 62.000000)" stroke="#4A4A4A" stroke-width="1.2">
                <path d="M0.196418891,12.5047055 C12.4866295,12.5047055 18.6317348,0.11185633 18.6317348,0.11185633" id="Stroke-62"></path>
            </g>
            <path d="M70.9358025,28.8148148 C72.0492741,28.8148148 72.945679,29.7112198 72.945679,30.8246914 L72.945679,42.8839506 C72.945679,43.9974222 72.0492741,44.8938272 70.9358025,44.8938272 C69.8223309,44.8938272 68.9259259,43.9974222 68.9259259,42.8839506 L68.9259259,30.8246914 C68.9259259,29.7112198 69.8223309,28.8148148 70.9358025,28.8148148 Z" id="Path-Copy-3" fill="#404041" fill-rule="nonzero"></path>
            <path d="M33.454321,28.8148148 C34.5677926,28.8148148 35.4641975,29.7112198 35.4641975,30.8246914 L35.4641975,42.8839506 C35.4641975,43.9974222 34.5677926,44.8938272 33.454321,44.8938272 C32.3408494,44.8938272 31.4444444,43.9974222 31.4444444,42.8839506 L31.4444444,30.8246914 C31.4444444,29.7112198 32.3408494,28.8148148 33.454321,28.8148148 Z" id="Path-Copy-4" fill="#404041" fill-rule="nonzero"></path>
        </g>
    </g>
</svg>