<?xml version="1.0" encoding="UTF-8"?>
<svg width="100px" height="100px" viewBox="0 0 100 100" version="1.1" xmlns="http://www.w3.org/2000/svg" xmlns:xlink="http://www.w3.org/1999/xlink">
    <!-- Generator: Sketch 46.2 (44496) - http://www.bohemiancoding.com/sketch -->
    <title>netural_on</title>
    <desc>Created with Sketch.</desc>
    <defs></defs>
    <g id="Page-1" stroke="none" stroke-width="1" fill="none" fill-rule="evenodd">
        <g id="netural_on">
            <circle id="Oval" fill="#FFD73F" cx="50" cy="50" r="44"></circle>
            <path d="M93,50 C93,26.2517133 73.7482867,7 50,7 C26.2517133,7 7,26.2517133 7,50 C7,73.7482867 26.2517133,93 50,93 C68.1666282,93 84.1866802,81.6300724 90.3628823,64.8616045 C92.1000334,60.1452168 93,55.1351518 93,50 Z M95,50 C95,55.371909 94.0580075,60.61593 92.2396285,65.5528521 C85.7760554,83.1015364 69.0113043,95 50,95 C25.1471439,95 5,74.8528561 5,50 C5,25.1471439 25.1471439,5 50,5 C74.8528561,5 95,25.1471439 95,50 Z" id="Stroke-57" fill="#4A4A4A" fill-rule="nonzero"></path>
            <path d="M37,67.9033708 L62,67.9033708 C62.3313708,67.9033708 62.6,67.6347416 62.6,67.3033708 C62.6,66.972 62.3313708,66.7033708 62,66.7033708 L37,66.7033708 C36.6686292,66.7033708 36.4,66.972 36.4,67.3033708 C36.4,67.6347416 36.6686292,67.9033708 37,67.9033708 Z" id="Stroke-58" fill="#4A4A4A" fill-rule="nonzero"></path>
            <path d="M69,27.752809 C70.108,27.752809 71,28.6347865 71,29.7303371 L71,41.5955056 C71,42.6910562 70.108,43.5730337 69,43.5730337 C67.892,43.5730337 67,42.6910562 67,41.5955056 L67,29.7303371 C67,28.6347865 67.892,27.752809 69,27.752809 Z" id="Path-Copy" fill="#404041" fill-rule="nonzero"></path>
            <path d="M30,27.752809 C31.108,27.752809 32,28.6347865 32,29.7303371 L32,41.5955056 C32,42.6910562 31.108,43.5730337 30,43.5730337 C28.892,43.5730337 28,42.6910562 28,41.5955056 L28,29.7303371 C28,28.6347865 28.892,27.752809 30,27.752809 Z" id="Path-Copy-2" fill="#404041" fill-rule="nonzero"></path>
        </g>
    </g>
</svg>