<?xml version="1.0" encoding="UTF-8"?>
<svg width="100px" height="100px" viewBox="0 0 100 100" version="1.1" xmlns="http://www.w3.org/2000/svg" xmlns:xlink="http://www.w3.org/1999/xlink">
    <!-- Generator: Sketch 46.2 (44496) - http://www.bohemiancoding.com/sketch -->
    <title>extremely happy_on</title>
    <desc>Created with Sketch.</desc>
    <defs></defs>
    <g id="Page-1" stroke="none" stroke-width="1" fill="none" fill-rule="evenodd">
        <g id="extremely-happy_on">
            <circle id="Oval" fill="#FFD73F" cx="50.5" cy="50.5" r="43.5"></circle>
            <path d="M92.5193157,49.9717058 C92.5193157,26.56676 73.7064007,7.59673373 50.5035786,7.59673373 C27.3007565,7.59673373 8.48784149,26.56676 8.48784149,49.9717058 C8.48784149,73.3766517 27.3007565,92.3466779 50.5035786,92.3466779 C73.7064007,92.3466779 92.5193157,73.3766517 92.5193157,49.9717058 Z M94.5193157,49.9717058 C94.5193157,74.4775149 74.8147107,94.3466779 50.5035786,94.3466779 C26.1924465,94.3466779 6.48784149,74.4775149 6.48784149,49.9717058 C6.48784149,25.4658968 26.1924465,5.59673373 50.5035786,5.59673373 C74.8147107,5.59673373 94.5193157,25.4658968 94.5193157,49.9717058 Z" id="Stroke-53" fill="#4A4A4A" fill-rule="nonzero"></path>
            <path d="M32.9143597,62.9009332 C33.1226194,63.2581566 33.3637039,63.6473551 33.6375549,64.0615621 C34.5805551,65.4878753 35.7125881,66.9147339 37.0321122,68.2452776 C40.7861531,72.0306695 45.2748923,74.2937824 50.5035786,74.2937824 C55.7322649,74.2937824 60.2210041,72.0306695 63.975045,68.2452776 C65.2945691,66.9147339 66.4266021,65.4878753 67.3696023,64.0615621 C67.6434533,63.6473551 67.8845378,63.2581566 68.0927975,62.9009332 L32.9143597,62.9009332 Z M69.0858483,63.1799544 C68.8403162,63.6132239 68.5463248,64.0949496 68.2037722,64.6130696 C67.226427,66.0913305 66.0540455,67.569046 64.685086,68.949438 C60.7577453,72.9095768 56.0288266,75.2937824 50.5035786,75.2937824 C44.9783306,75.2937824 40.2494119,72.9095768 36.3220712,68.949438 C34.9531117,67.569046 33.7807302,66.0913305 32.803385,64.6130696 C32.4608324,64.0949496 32.166841,63.6132239 31.9213089,63.1799544 C31.7726193,62.9175745 31.6723079,62.72792 31.6203096,62.6230548 C31.4555103,62.2907037 31.6972963,61.9009332 32.0682627,61.9009332 L68.9388945,61.9009332 C69.3098609,61.9009332 69.5516469,62.2907037 69.3868476,62.6230548 C69.3348493,62.72792 69.2345379,62.9175745 69.0858483,63.1799544 Z" id="Stroke-54" fill="#4A4A4A" fill-rule="nonzero"></path>
            <path d="M69.9358025,28.8148148 C71.0492741,28.8148148 71.945679,29.7112198 71.945679,30.8246914 L71.945679,42.8839506 C71.945679,43.9974222 71.0492741,44.8938272 69.9358025,44.8938272 C68.8223309,44.8938272 67.9259259,43.9974222 67.9259259,42.8839506 L67.9259259,30.8246914 C67.9259259,29.7112198 68.8223309,28.8148148 69.9358025,28.8148148 Z" id="Path-Copy-7" fill="#404041" fill-rule="nonzero"></path>
            <path d="M32.454321,28.8148148 C33.5677926,28.8148148 34.4641975,29.7112198 34.4641975,30.8246914 L34.4641975,42.8839506 C34.4641975,43.9974222 33.5677926,44.8938272 32.454321,44.8938272 C31.3408494,44.8938272 30.4444444,43.9974222 30.4444444,42.8839506 L30.4444444,30.8246914 C30.4444444,29.7112198 31.3408494,28.8148148 32.454321,28.8148148 Z" id="Path-Copy-8" fill="#404041" fill-rule="nonzero"></path>
        </g>
    </g>
</svg>