<?xml version="1.0" encoding="UTF-8"?>
<svg width="100px" height="100px" viewBox="0 0 100 100" version="1.1" xmlns="http://www.w3.org/2000/svg" xmlns:xlink="http://www.w3.org/1999/xlink">
    <!-- Generator: Sketch 46.2 (44496) - http://www.bohemiancoding.com/sketch -->
    <title>star_4</title>
    <desc>Created with Sketch.</desc>
    <defs></defs>
    <g id="Page-1" stroke="none" stroke-width="1" fill="none" fill-rule="evenodd">
        <g id="star_4">
            <path d="M50.0006145,8 C48.8353433,8 47.8785944,8.55418794 47.047572,9.25294665 C46.2196162,9.95170536 45.4591234,10.8612964 44.6986307,11.9124464 C43.1868446,14.0117344 41.6934576,16.7194244 40.2338022,19.4963879 C38.7772132,22.2763633 37.3512893,25.1226003 36.0725575,27.4026017 C34.7907592,29.6856151 33.4660298,31.4325119 33.0121874,31.7517723 C32.5522119,32.0680209 30.3964602,32.7396726 27.7316691,33.2035038 C25.0699444,33.6643231 21.8133181,34.082976 18.6057558,34.5528309 C15.3981936,35.0256978 12.2519614,35.546755 9.70369737,36.2786445 C8.42803208,36.6460952 7.30262545,37.0557124 6.35507599,37.5978527 C5.40446003,38.1399931 4.54583917,38.8417637 4.1778588,39.9350801 C3.80374542,41.0253847 4.07053119,42.094606 4.50904113,43.0734705 C4.94755107,44.055347 5.61298224,45.0251759 6.41947256,46.0401832 C8.03245318,48.0732096 10.2526014,50.2779138 12.5616783,52.4675585 C14.8676886,54.6541914 17.253428,56.8227529 19.1239949,58.6961491 C20.9884288,60.5695453 22.3192911,62.3405372 22.4848823,62.8224398 C22.6474069,63.313378 22.6535399,65.4819395 22.2916926,68.0480706 C21.9298452,70.6172136 21.3288106,73.7104257 20.8044386,76.7825545 C20.283133,79.8546833 19.8323571,82.8906694 19.771027,85.4507767 C19.740362,86.7308304 19.8016921,87.8904084 20.0470123,88.9325227 C20.2923326,89.9776489 20.733909,90.9896443 21.6875915,91.6522603 C22.6382074,92.3148763 23.7421485,92.3961974 24.8460896,92.2998169 C25.9377647,92.2034363 27.0969029,91.908271 28.3511027,91.4866063 C30.8656352,90.637253 33.7297491,89.2879259 36.612262,87.8602895 C39.4947749,86.4356651 42.3864873,84.9387553 44.8212908,83.812308 C47.2591608,82.6858608 49.4118459,82.0051735 49.991415,82.0051735 C50.5740506,82.0051735 52.7206028,82.6858608 55.1615392,83.812308 C57.5963427,84.9387553 60.4880551,86.4326532 63.370568,87.8602895 C66.2530809,89.284914 69.1202613,90.637253 71.6317273,91.4835944 C72.8889936,91.9052591 74.0450653,92.2064482 75.1398069,92.296805 C76.243748,92.3961974 77.3476891,92.3148763 78.2983051,91.6522603 C79.248921,90.9896443 79.693564,89.9776489 79.9419507,88.9355346 C80.187271,87.8964322 80.248601,86.7368542 80.217936,85.4568005 C80.1566059,82.8966932 79.7027635,79.8607071 79.1814579,76.7915902 C78.6601524,73.7194613 78.0560513,70.6232374 77.6942039,68.0571063 C77.3323566,65.4879633 77.3384896,63.3194018 77.5040808,62.8314754 C77.6727384,62.3435491 79.0066673,60.5725572 80.8711012,58.7051848 C82.741668,56.8287767 85.1243409,54.6602152 87.4334178,52.4705704 C89.7332951,50.2839376 91.9595763,48.0792334 93.5756235,46.0492188 C94.3882468,45.0372235 95.047545,44.0673946 95.4891214,43.0855181 C95.9276313,42.1066535 96.1944171,41.0374322 95.8264367,39.9471277 C95.4584564,38.8538113 94.5937025,38.1520407 93.6430865,37.6099003 C92.6924706,37.0677599 91.5701304,36.6581427 90.3005982,36.2937039 C87.7492676,35.5648263 84.6030354,35.0437692 81.3954732,34.5709023 C78.1909774,34.1010473 74.9312847,33.6823945 72.26956,33.2155513 C69.6017023,32.754732 67.4490171,32.0830803 66.9951747,31.7698437 C66.5351992,31.4475713 65.2166029,29.7006746 63.9286716,27.4176612 C62.6499398,25.1376597 61.2301488,22.2914227 59.7704934,19.5114474 C58.3108379,16.7344839 56.8174509,14.0298058 55.3025984,11.9214821 C54.5359726,10.873344 53.7816128,9.96375292 52.9505905,9.26499421 C52.1257012,8.55418794 51.1658857,8 50.0006145,8 Z" id="Path-Copy" fill="#FFFFFF"></path>
            <path d="M50.0006078,7.29166667 C51.3119035,7.29166667 52.4552189,7.82363853 53.5620889,8.77752372 C54.3862321,9.47049824 55.1522529,10.3498824 56.057069,11.5870161 C57.4042028,13.4619142 58.7312727,15.7536548 60.5496682,19.2131137 C60.6948933,19.4897009 60.8449212,19.7768467 61.0037281,20.082035 C61.3261051,20.7015652 62.5857102,23.1412314 62.8909133,23.7275502 C63.5986561,25.087179 64.1449091,26.1094706 64.6482388,27.0069227 C65.7359702,28.9350576 67.0315575,30.7370442 67.3784746,30.9801347 C67.7375971,31.2279968 69.9567419,31.8606455 72.2002537,32.2481709 C73.3312017,32.4465293 74.6055154,32.6430697 76.3426599,32.8925447 C76.9440929,32.9789177 79.6583823,33.3615169 80.3923268,33.4671573 C80.6731454,33.507577 80.940496,33.5463884 81.2000642,33.5844475 C85.2398378,34.180001 87.8813946,34.6718361 90.1384698,35.3166502 C91.5846853,35.7318087 92.7092246,36.1664828 93.6641078,36.7110567 C94.9835618,37.4635472 95.8605292,38.3378946 96.2758149,39.5717623 C96.6939954,40.810807 96.516996,42.0436222 95.906689,43.4059782 C95.4574651,44.4048592 94.8007848,45.4088531 93.8843393,46.5501286 C92.4471022,48.3555291 90.578723,50.281414 87.7146249,53.0044847 C87.4420982,53.2629155 87.1573372,53.5316819 86.8483086,53.822281 C86.454354,54.1927413 84.4376572,56.0797082 83.8901543,56.5958603 C82.7974932,57.625954 81.9673931,58.4258128 81.2432091,59.1522579 C79.6965242,60.7013805 78.2800567,62.4783214 78.1520757,62.8485221 C78.0283113,63.2132027 78.0833799,65.4262985 78.3833841,67.5563507 C78.5948664,69.0561309 78.6687863,69.4848883 79.4441528,73.8427164 C79.5787091,74.598969 79.6831571,75.1935493 79.7821385,75.7697813 C79.8162911,75.9689798 79.8162911,75.9689798 79.8501476,76.1680654 C80.5061748,80.0303385 80.8347551,82.6101743 80.8891934,84.8825962 C80.9242173,86.344604 80.8384695,87.523693 80.5892453,88.5793212 C80.246981,90.0153015 79.6354822,91.1071566 78.5625455,91.855035 C77.4977003,92.5972731 76.2843546,92.803898 74.7842908,92.6688131 C73.6874282,92.5782813 72.5200815,92.2993687 71.0772543,91.815469 C68.8551498,91.0666399 66.4099216,89.9733425 62.7814127,88.1800241 C62.2564951,87.9196849 61.8849684,87.7344987 61.472105,87.5279899 C61.5486205,87.5662619 58.6998729,86.1371826 57.9294802,85.754575 C56.6319318,85.1101608 55.6054839,84.6131069 54.6864199,84.1879069 C52.6048947,83.2273213 50.4435996,82.4924361 49.9915083,82.4924361 C49.540136,82.4924361 47.3712804,83.2292744 45.2974663,84.1875051 C44.3901303,84.6072787 43.3791135,85.0969873 42.096218,85.734292 C41.3528734,86.1035637 38.6813769,87.4437556 38.6001829,87.4843492 C38.1534934,87.7076753 37.7532095,87.9069832 37.3703274,88.0965593 C33.6087269,89.9594859 31.1383698,91.0643232 28.9050909,91.8186741 C27.4969569,92.292092 26.3112823,92.5738524 25.2064767,92.6713917 C23.6967764,92.8031974 22.4869868,92.5963232 21.4247437,91.8558974 C20.3472076,91.1072282 19.7373332,90.0141838 19.3991955,88.5736309 C19.1505816,87.5175257 19.0648754,86.3382422 19.0998896,84.8766379 C19.1544378,82.5996245 19.4839179,80.0013661 20.1360378,76.1583312 C20.166331,75.9811717 20.166331,75.9811717 20.1968218,75.8040509 C20.2928427,75.2471416 20.3940249,74.6720858 20.523867,73.9426831 C21.3015664,69.5738708 21.3873916,69.0758753 21.6026657,67.5474133 C21.9024893,65.4211393 21.9585098,63.2066963 21.8382351,62.8431797 C21.7113602,62.4739491 20.295558,60.6943602 18.7519627,59.1433429 C18.0353205,58.4256168 17.2135911,57.6347302 16.1317236,56.6157142 C15.5916357,56.107003 13.5976971,54.2427745 13.203768,53.8726312 C12.8730288,53.5618622 12.570046,53.2760392 12.2805244,53.0015056 C9.45198694,50.3192681 7.5533386,48.3593793 6.11023409,46.540467 C5.17840228,45.3677114 4.53120562,44.3786382 4.09089737,43.3927335 C3.47983225,42.0286824 3.30453541,40.7952035 3.72816729,39.5606369 C4.14398896,38.3251779 5.01928574,37.44897 6.3328665,36.6998303 C7.28318958,36.156103 8.40595755,35.7222502 9.86564983,35.3017916 C12.1184095,34.6547742 14.7553399,34.1630163 18.8020608,33.566439 C19.0367491,33.532061 19.2783571,33.4969837 19.5301667,33.46071 C20.303776,33.3492699 23.270333,32.931687 23.9627991,32.8319661 C25.5417692,32.6045814 26.7405303,32.4198424 27.8022353,32.2360318 C30.0473985,31.8452408 32.2659202,31.211755 32.6214768,30.9673678 C32.9750587,30.7186367 34.2763356,28.9096306 35.3517518,26.994205 C35.8583588,26.0909156 36.4092437,25.0614782 37.112919,23.7120204 C37.4654719,23.0359198 38.7491188,20.5519992 39.0010214,20.0674669 C39.1602881,19.7611189 39.3097933,19.4745512 39.4547882,19.1978228 C41.2808522,15.7237747 42.6018607,13.4419955 43.9460614,11.575423 C44.8192737,10.3684727 45.6036293,9.46816851 46.4360936,8.76560704 C47.5686388,7.8133152 48.6972415,7.29166667 50.0006078,7.29166667 Z M50.0006078,9.29166667 C49.2383844,9.29166667 48.5271771,9.62039194 47.7246267,10.295208 C47.0371744,10.8753879 46.3524812,11.6612969 45.5677338,12.7459672 C44.2942339,14.5143678 43.0102933,16.7321195 41.2257342,20.1272036 C41.0823944,20.400775 40.9338646,20.685473 40.7755363,20.9900161 C40.5253756,21.4711979 39.2409605,23.9566048 38.8862986,24.6367498 C38.1740358,26.0026762 37.6144989,27.0482816 37.0959091,27.9729363 C35.8754632,30.1466748 34.4528567,32.1243506 33.763385,32.6092967 C33.0797901,33.079291 30.6740417,33.7662383 28.1443065,34.2065613 C27.059551,34.394363 25.8439831,34.581692 24.2478748,34.8115448 C23.5511973,34.9118721 20.5846971,35.3294471 19.8153276,35.4402764 C19.5650383,35.4763312 19.3249935,35.5111815 19.0928438,35.5451872 C15.1302945,36.1293561 12.5611231,36.6084777 10.4184929,37.2238644 C9.09989194,37.6036825 8.11576956,37.9839608 7.32487992,38.4364671 C6.39686388,38.9657187 5.85662402,39.5065209 5.62179304,40.2041795 C5.38754012,40.886879 5.49333668,41.6313181 5.91658632,42.5761194 C6.27774637,43.3848002 6.83971258,44.2436206 7.67656273,45.2968376 C9.04650503,47.0235347 10.8919187,48.9284717 13.6566913,51.5502425 C13.9438348,51.8225211 14.2446459,52.1062954 14.5732934,52.4150989 C14.9644398,52.7826276 16.9595828,54.647982 17.503015,55.1598434 C18.598487,56.1916735 19.4335257,56.9953698 20.1684038,57.7313614 C21.9268793,59.4982899 23.4702432,61.438217 23.7332914,62.2039349 C23.9869725,62.9702293 23.9255591,65.3978491 23.5830965,67.826508 C23.3628197,69.3904895 23.2767542,69.8898798 22.4929126,74.2931961 C22.3636509,75.019338 22.2630488,75.5910974 22.1677408,76.1438718 C22.1375232,76.3194055 22.1375232,76.3194055 22.1076881,76.4938819 C21.4708561,80.2468256 21.1509378,82.7696808 21.099316,84.9245363 C21.0680406,86.2300678 21.1421177,87.2493389 21.3461282,88.1159712 C21.5815559,89.1189527 21.9556407,89.7894043 22.5671657,90.2142916 C23.1822017,90.6429954 23.9468743,90.7737545 25.031557,90.6790558 C25.956796,90.5973694 26.9969368,90.3501933 28.2664019,89.9233973 C30.3908907,89.2057922 32.7963176,88.1299941 36.3147102,86.3874229 C36.8632571,86.1158963 37.261288,85.9177101 37.7058156,85.6954649 C37.7839094,85.6564213 40.4589136,84.3144696 41.2064214,83.9431298 C42.5044636,83.2983007 43.5307152,82.8012127 44.4581311,82.3721495 C46.7970087,81.2914428 49.1488546,80.4924361 49.9915083,80.4924361 C50.8351029,80.4924361 53.1777112,81.2889715 55.5253207,82.3723507 C56.4647954,82.806993 57.5064487,83.3114101 58.8190889,83.9633195 C59.5937251,84.3480346 62.4465864,85.7791775 62.3667998,85.7392693 C62.7778284,85.9448604 63.1474432,86.1290936 63.5008182,86.3044003 C67.2204694,88.1430085 69.6018735,89.2077692 71.7145754,89.9197318 C73.01639,90.3563372 74.0379137,90.6004086 74.9562196,90.6762306 C76.0379351,90.773622 76.803475,90.6432555 77.4188841,90.2142917 C78.0283534,89.789468 78.4051331,89.116713 78.6432502,88.1176952 C78.8469517,87.2548774 78.9210434,86.2360678 78.889767,84.9304946 C78.8382689,82.7808038 78.5192121,80.2757413 77.8783617,76.5028193 C77.8448333,76.3056628 77.8448333,76.3056628 77.8110074,76.1083697 C77.7128081,75.5366914 77.6089961,74.9457312 77.4750778,74.193064 C76.6934989,69.8003204 76.6194719,69.3709414 76.4029533,67.8354454 C76.0593468,65.3958134 75.9989731,62.9695191 76.2599937,62.2004523 C76.5227545,61.4402858 78.0679209,59.5018936 79.8273375,57.7397045 C80.5682385,56.9964899 81.4117998,56.1836602 82.51822,55.1405954 C83.0691112,54.6212489 85.0870599,52.7331106 85.4782079,52.3652895 C85.785311,52.0765011 86.0680742,51.8096204 86.3374936,51.5541372 C89.1378428,48.8916753 90.9552997,47.01828 92.3222456,45.3011909 C93.1438896,44.2779616 93.7126756,43.4083487 94.0820637,42.5869908 C94.5047281,41.6434976 94.6120079,40.8962853 94.380565,40.2105325 C94.1485246,39.521111 93.6062297,38.9804362 92.6733027,38.4483837 C91.877912,37.994769 90.8925908,37.6139077 89.5878529,37.2393616 C87.4401659,36.6257991 84.8658439,36.1464825 80.9091454,35.5631758 C80.6521632,35.5254961 80.3865382,35.4869353 80.107393,35.4467565 C79.3772013,35.3416562 76.6633305,34.959116 76.0583526,34.8722339 C74.3024724,34.6200683 73.0102248,34.4207619 71.8572899,34.2185438 C69.330698,33.7821253 66.9226056,33.0956101 66.2366362,32.6221321 C65.554574,32.1442593 64.1407839,30.1778687 62.9050821,27.9874319 C62.3884239,27.0662213 61.8333953,26.0275065 61.1168729,24.6510114 C60.8096347,24.0607831 59.5499409,21.6209452 59.229554,21.0052393 C59.0718349,20.7021415 58.9229367,20.4171579 58.7791241,20.1432607 C57.0014023,16.7611828 55.7114497,14.5335408 54.4378194,12.7608812 C53.6243874,11.6487493 52.9543968,10.8796068 52.2657401,10.3004595 C51.4814954,9.6246767 50.7657892,9.29166667 50.0006078,9.29166667 Z" id="Path-Copy" fill="#404041" fill-rule="nonzero"></path>
            <path d="M54.6176758,56.7290039 L52.5976562,56.7290039 L52.5976562,60 L50.2495117,60 L50.2495117,56.7290039 L43.3999023,56.7290039 L43.3999023,54.8730469 L50.2495117,44.9677734 L52.5976562,44.9677734 L52.5976562,54.7294922 L54.6176758,54.7294922 L54.6176758,56.7290039 Z M50.2495117,54.7294922 L50.2495117,50.9663086 C50.2495117,49.6264581 50.2836911,48.5293011 50.3520508,47.6748047 L50.2700195,47.6748047 C50.0786123,48.1259788 49.7778341,48.6728483 49.3676758,49.3154297 L45.6455078,54.7294922 L50.2495117,54.7294922 Z" id="4" fill="#D3D3D3"></path>
        </g>
    </g>
</svg>