<?xml version="1.0" encoding="UTF-8"?>
<svg width="100px" height="100px" viewBox="0 0 100 100" version="1.1" xmlns="http://www.w3.org/2000/svg" xmlns:xlink="http://www.w3.org/1999/xlink">
    <!-- Generator: Sketch 46.2 (44496) - http://www.bohemiancoding.com/sketch -->
    <title>happy_on</title>
    <desc>Created with Sketch.</desc>
    <defs></defs>
    <g id="Page-1" stroke="none" stroke-width="1" fill="none" fill-rule="evenodd">
        <g id="happy_on">
            <circle id="Oval" fill="#FFD73F" cx="50" cy="50" r="44"></circle>
            <path d="M92.1763909,49.9717058 C92.1763909,26.56676 73.3634759,7.59673373 50.1606538,7.59673373 C26.9578318,7.59673373 8.14491674,26.56676 8.14491674,49.9717058 C8.14491674,73.3766516 26.9578318,92.3466779 50.1606538,92.3466779 C73.3634759,92.3466779 92.1763909,73.3766517 92.1763909,49.9717058 Z M94.1763909,49.9717058 C94.1763909,74.4775149 74.4717859,94.3466779 50.1606538,94.3466779 C25.8495218,94.3466779 6.14491674,74.4775149 6.14491674,49.9717058 C6.14491674,25.4658968 25.8495218,5.59673373 50.1606538,5.59673373 C74.4717859,5.59673373 94.1763909,25.4658968 94.1763909,49.9717058 Z" id="Stroke-49" fill="#404041" fill-rule="nonzero"></path>
            <path d="M31.1877941,62.6674791 C31.2405905,62.7739535 31.3417606,62.9652318 31.491383,63.2292576 C31.7380128,63.6644642 32.0331922,64.1481365 32.3770432,64.6682204 C33.3578229,66.151676 34.5342392,67.6344772 35.9081423,69.019854 C39.8528129,72.9974676 44.6057496,75.3937824 50.1606538,75.3937824 C55.715558,75.3937824 60.4684947,72.9974676 64.4131653,69.019854 C65.7870684,67.6344772 66.9634847,66.151676 67.9442644,64.6682204 C68.2881154,64.1481365 68.5832948,63.6644642 68.8299246,63.2292576 C68.979547,62.9652318 69.0807171,62.7739535 69.1335135,62.6674791 C69.2807227,62.3706019 69.1593928,62.0105987 68.8625156,61.8633894 C68.5656384,61.7161802 68.2056352,61.8375101 68.0584259,62.1343873 C68.015205,62.2215511 67.9243406,62.3933446 67.7859111,62.6376193 C67.5524547,63.0495801 67.2715304,63.5098944 66.9432605,64.0064114 C66.0036948,65.4275298 64.8756967,66.8493027 63.5611161,68.1748616 C59.8244051,71.9427788 55.3596839,74.1937824 50.1606538,74.1937824 C44.9616237,74.1937824 40.4969025,71.9427788 36.7601915,68.1748616 C35.4456109,66.8493027 34.3176128,65.4275298 33.3780471,64.0064114 C33.0497772,63.5098944 32.7688529,63.0495801 32.5353965,62.6376193 C32.396967,62.3933446 32.3061026,62.2215511 32.2628817,62.1343873 C32.1156724,61.8375101 31.7556692,61.7161802 31.458792,61.8633894 C31.1619148,62.0105987 31.0405849,62.3706019 31.1877941,62.6674791 Z" id="Stroke-50" fill="#4A4A4A" fill-rule="nonzero"></path>
            <path d="M68.3061728,28.8148148 C69.4196444,28.8148148 70.3160494,29.7112198 70.3160494,30.8246914 L70.3160494,42.8839506 C70.3160494,43.9974222 69.4196444,44.8938272 68.3061728,44.8938272 C67.1927012,44.8938272 66.2962963,43.9974222 66.2962963,42.8839506 L66.2962963,30.8246914 C66.2962963,29.7112198 67.1927012,28.8148148 68.3061728,28.8148148 Z" id="Path-Copy-5" fill="#404041" fill-rule="nonzero"></path>
            <path d="M30.8246914,28.8148148 C31.938163,28.8148148 32.8345679,29.7112198 32.8345679,30.8246914 L32.8345679,42.8839506 C32.8345679,43.9974222 31.938163,44.8938272 30.8246914,44.8938272 C29.7112198,44.8938272 28.8148148,43.9974222 28.8148148,42.8839506 L28.8148148,30.8246914 C28.8148148,29.7112198 29.7112198,28.8148148 30.8246914,28.8148148 Z" id="Path-Copy-6" fill="#404041" fill-rule="nonzero"></path>
        </g>
    </g>
</svg>