<?xml version="1.0" encoding="UTF-8"?>
<svg width="100px" height="100px" viewBox="0 0 100 100" version="1.1" xmlns="http://www.w3.org/2000/svg" xmlns:xlink="http://www.w3.org/1999/xlink">
    <!-- Generator: Sketch 46.2 (44496) - http://www.bohemiancoding.com/sketch -->
    <title>extremely sad_on</title>
    <desc>Created with Sketch.</desc>
    <defs></defs>
    <g id="Page-1" stroke="none" stroke-width="1" fill="none" fill-rule="evenodd">
        <g id="extremely-sad_on">
            <circle id="Oval" fill="#FFD73F" cx="50" cy="50" r="44"></circle>
            <path d="M93,50 C93,26.2517133 73.7482867,7 50,7 C26.2517133,7 7,26.2517133 7,50 C7,73.7482867 26.2517133,93 50,93 C73.7482867,93 93,73.7482867 93,50 Z M95,50 C95,74.8528561 74.8528561,95 50,95 C25.1471439,95 5,74.8528561 5,50 C5,25.1471439 25.1471439,5 50,5 C74.8528561,5 95,25.1471439 95,50 Z" id="Stroke-65" fill="#4A4A4A" fill-rule="nonzero"></path>
            <g id="Group-6" stroke-linecap="round" stroke-linejoin="round" transform="translate(37.000000, 62.359551)" stroke="#4A4A4A" stroke-width="1.2">
                <path d="M0.66129492,6.10832232 C0.66129492,6.10832232 6.89771734,0.120765977 13.1341398,0.120765977 C19.3705622,0.120765977 25.6069846,6.10832232 25.6069846,6.10832232" id="Stroke-66"></path>
            </g>
            <path d="M68,27.752809 C69.108,27.752809 70,28.6347865 70,29.7303371 L70,41.5955056 C70,42.6910562 69.108,43.5730337 68,43.5730337 C66.892,43.5730337 66,42.6910562 66,41.5955056 L66,29.7303371 C66,28.6347865 66.892,27.752809 68,27.752809 Z" id="Path" fill="#404041" fill-rule="nonzero"></path>
            <path d="M31,27.752809 C32.108,27.752809 33,28.6347865 33,29.7303371 L33,41.5955056 C33,42.6910562 32.108,43.5730337 31,43.5730337 C29.892,43.5730337 29,42.6910562 29,41.5955056 L29,29.7303371 C29,28.6347865 29.892,27.752809 31,27.752809 Z" id="Path" fill="#404041" fill-rule="nonzero"></path>
        </g>
    </g>
</svg>